<?xml version="1.0" encoding="UTF-8" standalone="no"?>
<!-- Created with Inkscape (http://www.inkscape.org/) -->

<svg
   xmlns:i="http://ns.adobe.com/AdobeIllustrator/10.0/"
   xmlns:dc="http://purl.org/dc/elements/1.1/"
   xmlns:cc="http://creativecommons.org/ns#"
   xmlns:rdf="http://www.w3.org/1999/02/22-rdf-syntax-ns#"
   xmlns:svg="http://www.w3.org/2000/svg"
   xmlns="http://www.w3.org/2000/svg"
   xmlns:sodipodi="http://sodipodi.sourceforge.net/DTD/sodipodi-0.dtd"
   xmlns:inkscape="http://www.inkscape.org/namespaces/inkscape"
   width="1920"
   height="1080"
   id="svg2"
   version="1.1"
   inkscape:version="0.48.4 r9939"
   inkscape:export-filename="/home/adrien/Dropbox/wheezy_artwork/exports/proposal_1_full/wallpaper_1920x1080.png"
   inkscape:export-xdpi="90"
   inkscape:export-ydpi="90"
   sodipodi:docname="Beagle-wallpaper.svg">
  <defs
     id="defs4">
    <linearGradient
       id="linearGradient3755">
      <stop
         style="stop-color:#8f9db3;stop-opacity:1;"
         offset="0"
         id="stop3757" />
      <stop
         style="stop-color:#161b2b;stop-opacity:1;"
         offset="1"
         id="stop3759" />
    </linearGradient>
    <clipPath
       id="clipPath3001"
       clipPathUnits="userSpaceOnUse">
      <path
         inkscape:connector-curvature="0"
         id="path3003"
         d="M 0,792 612,792 612,0 0,0 0,792 z" />
    </clipPath>
    <clipPath
       id="clipPath3007"
       clipPathUnits="userSpaceOnUse">
      <path
         inkscape:connector-curvature="0"
         id="path3009"
         d="M 0,0 612,0 612,792 0,792 0,0 z" />
    </clipPath>
  </defs>
  <sodipodi:namedview
     id="base"
     pagecolor="#ffffff"
     bordercolor="#666666"
     borderopacity="1.0"
     inkscape:pageopacity="0.0"
     inkscape:pageshadow="2"
     inkscape:zoom="0.80648148"
     inkscape:cx="766.56716"
     inkscape:cy="540"
     inkscape:document-units="px"
     inkscape:current-layer="layer1"
     showgrid="false"
     inkscape:window-width="1920"
     inkscape:window-height="1058"
     inkscape:window-x="-8"
     inkscape:window-y="-8"
     inkscape:window-maximized="1" />
  <metadata
     id="metadata7">
    <rdf:RDF>
      <cc:Work
         rdf:about="">
        <dc:format>image/svg+xml</dc:format>
        <dc:type
           rdf:resource="http://purl.org/dc/dcmitype/StillImage" />
        <dc:title></dc:title>
      </cc:Work>
    </rdf:RDF>
  </metadata>
  <g
     inkscape:label="Fond"
     inkscape:groupmode="layer"
     id="layer1"
     transform="translate(0,27.637817)">
    <rect
       style="fill:#535c6f;fill-opacity:1;stroke:none"
       id="rect2985"
       width="1920"
       height="1080"
       x="0"
       y="-27.637817" />
    <g
       id="g2997"
       transform="matrix(1.4279325,0,0,-1.4279325,1072.2147,1087.6602)">
      <g
         id="g2999"
         clip-path="url(#clipPath3001)">
        <g
           id="g3005"
           clip-path="url(#clipPath3007)"
           transform="matrix(0.66688448,0,0,0.66688448,98.55416,42.163664)">
          <path
             inkscape:connector-curvature="0"
             d="m 297.7246,207.9092 c 5.148,0.112 13.466,0.209 23.232,0.068 29.937,1.145 31.292,2.025 -23.232,-0.068"
             style="fill:#f2f2f2;fill-opacity:1;fill-rule:nonzero;stroke:none"
             id="path3139" />
          <path
             inkscape:connector-curvature="0"
             d="m 297.0566,207.8838 c 0.229,0.01 0.441,0.018 0.668,0.025 -6.56,-0.142 -7.982,-0.306 -0.668,-0.025"
             style="fill:#f2f2f2;fill-opacity:1;fill-rule:nonzero;stroke:none"
             id="path3141" />
          <path
             inkscape:connector-curvature="0"
             d="m 403.7383,182.3477 c 0,2.402 -0.35,4.687 -0.979,6.762 0.341,3.04 -1.415,5.6 -4.72,7.756 -1.37,1.206 -2.922,2.024 -4.584,2.361 -15.83,6.602 -48.511,8.401 -72.498,8.751 -18.677,-0.715 -48.461,-1.532 -82.752,-1.797 -7.007,-0.054 -27.408,-7.437 -44.18,-17.722 -4.266,-2.616 -7.444,-10.465 -5.188,-15.125 -0.553,-1.513 -0.864,-3.128 -0.864,-4.809 0,-6.569 4.565,-12.151 10.952,-14.305 -0.07,-0.475 -0.111,-0.956 -0.111,-1.443 0,-8.099 10.157,-14.664 22.682,-14.664 0.851,0 1.69,0.035 2.516,0.095 1.794,-6.675 8.386,-11.634 16.266,-11.634 3.636,0 6.991,1.066 9.739,2.857 1.767,-0.285 3.605,-0.453 5.51,-0.453 6.565,0 12.462,1.813 16.604,4.695 4.116,-3.711 10.828,-6.138 18.433,-6.138 7.427,0 14.002,2.318 18.14,5.884 3.506,-1.434 7.649,-2.278 12.106,-2.278 9.773,0 18.077,4.003 21.271,9.603 3.139,-1.061 6.702,-1.668 10.489,-1.668 11.568,0 21.094,5.599 22.49,12.833 9.324,0.767 16.893,6.362 18.998,13.692 5.515,1.527 9.68,8.439 9.68,16.747"
             style="fill:#f2f2f2;fill-opacity:1;fill-rule:nonzero;stroke:none"
             id="path3143" />
          <path
             inkscape:connector-curvature="0"
             d="m 247.6875,165.4385 c -4.247,2.77 -6.223,5.353 -6.776,10.151 -20.118,1.846 -14.581,22.146 -1.48,30.451 -0.368,2.399 -0.737,4.798 -0.921,7.014 -6.459,8.673 -43.185,60.53 -15.688,63.115 0.894,-0.06 1.816,-0.615 2.586,-1.477 4.797,-7.198 6.643,-17.533 10.888,-25.652 3.321,17.532 4.059,18.27 5.168,23.069 -9.227,0 -19.936,8.232 -25.099,15.317 -2.82,3.87 -4.007,10.921 -4.021,12.939 -0.76,4.615 -0.958,8.301 -0.607,12.715 0.183,2.277 2.852,9.259 3.237,10.117 9.036,20.201 7.618,20.463 17.077,40.817 5.163,11.107 8.12,12.919 19.007,16.794 17.165,14.026 39.312,18.825 59.982,8.859 14.761,-8.49 20.298,-20.855 26.573,-35.987 10.889,-4.06 20.301,-9.044 29.16,-16.61 16.609,-4.613 12.181,-13.656 12.181,-28.236 -2.032,-10.15 -3.139,-12.364 -3.139,-14.209 4.984,-12.366 1.039,-29.967 -15.317,-25.838 -2.935,0.739 -4.798,3.691 -7.013,5.536 -4.613,-1.66 -9.228,-3.322 -13.657,-4.984 0.24,-1.946 1.354,-7.07 2.03,-10.149 1.661,-17.902 1.661,-33.957 -2.215,-51.306 10.335,-7.75 17.963,-18.134 7.346,-28.603 -2.645,-2.608 -3.102,-2.768 -8.821,-4.431 -0.923,-3.875 -2.032,-6.09 -5.354,-8.674 -4.818,-2.625 -14.797,-3.405 -20.927,-0.753 -2.628,1.136 -6.686,3.066 -10.075,5.368 -4.245,4.612 -4.8,8.12 -5.907,14.026 -4.246,0 -8.49,-0.184 -12.734,-0.37 -1.291,-8.118 -4.798,-13.104 -11.813,-17.717 -8.205,-4.232 -17.757,-3.09 -23.671,-1.292"
             style="fill:#231f20;fill-opacity:1;fill-rule:evenodd;stroke:none"
             id="path3145" />
          <path
             inkscape:connector-curvature="0"
             d="m 255.6729,248.4854 c 1.848,11.627 3.691,15.872 14.028,21.04 13.84,0 29.895,-2.031 29.895,16.24 -5.721,16.794 -11.44,30.637 -1.107,46.508 8.121,8.119 11.997,12.18 9.783,23.99 -4.985,11.811 -11.627,23.438 -18.087,34.696 0,0.554 0,0.554 3.69,0 0,-0.553 0,-1.108 0.187,-1.661 12.732,-20.3 16.052,-33.588 39.678,-37.833 9.411,-3.69 18.822,-8.12 26.942,-14.026 -0.844,-0.598 -1.064,0.047 -6.828,-3.32 -5.351,-5.354 -8.895,-7.994 -7.567,-14.58 5.537,-12.55 18.087,-12.55 28.976,-6.459 -4.061,-20.301 -41.708,-23.809 -56.844,-25.838 -14.024,-6.644 16.242,-11.072 20.119,-11.813 -10.706,-4.428 -27.498,-2.029 -38.757,-1.844 -0.185,-1.107 -0.369,-2.214 -0.369,-3.322 5.537,-0.554 11.074,-1.107 16.609,-1.845 3.323,-5.353 7.197,-10.704 7.936,-17.163 -2.398,-18.456 -0.184,-39.68 2.031,-58.135 2.399,-4.797 10.705,-15.869 4.429,-20.297 -10.521,-2.032 -27.454,-0.557 -28.648,16.828 -1.089,15.872 4.657,25.246 4.657,41.118 -0.368,0.922 -0.74,1.847 -0.924,2.769 -0.553,-0.739 -1.107,-1.66 -1.661,-2.584 -0.923,-13.103 -4.352,-22.853 -5.091,-35.954 -4.245,-2.03 -12.809,-4.093 -17.978,-4.093 -1.476,18.824 -1.476,18.824 -2.029,35.064 -1.291,5.907 -1.291,5.907 -2.216,7.567 -5.168,-15.871 2.216,-35.803 0.37,-52.412 -5.538,-8.489 -15.501,-10.151 -25.284,-8.303 -6.458,4.058 2.031,16.239 3.691,20.852 2.217,16.241 2.4,33.219 2.4,49.644 -0.369,1.66 -0.737,3.322 -0.922,4.799 -0.369,0.183 -0.741,0.367 -1.109,0.367"
             style="fill:#ffffff;fill-opacity:1;fill-rule:evenodd;stroke:none"
             id="path3147" />
          <path
             inkscape:connector-curvature="0"
             d="m 221.1641,257.7148 c 1.659,1.659 3.321,3.136 4.981,4.612 3.692,-9.781 7.936,-18.086 14.949,-26.02 1.477,12.733 3.506,24.544 7.014,36.724 24.36,0.37 40.229,7.383 41.523,33.405 -0.403,3.17 -0.853,6.388 -1.475,9.781 -7.752,25.283 -14.212,49.09 -16.242,54.072 -3.322,6.091 -6.828,8.12 -12.733,11.074 10.15,6.09 18.454,10.704 31.004,9.596 6.459,-11.258 13.102,-22.885 18.086,-34.695 2.215,-11.811 -1.662,-15.871 -9.782,-23.99 -10.333,-15.871 -4.614,-29.714 1.107,-46.508 0,-7.821 -3.199,-12.53 -7.648,-14.662 -5.948,-2.851 -14.331,-1.578 -22.247,-1.578 -10.337,-5.168 -12.18,-9.414 -14.028,-21.04 -3.691,-16.608 -2.582,-35.803 -3.506,-52.963 -2.03,-4.43 -4.059,-8.861 -6.09,-13.475 -11.81,0 -14.58,4.614 -9.78,15.503 3.135,3.69 6.708,6.235 10.953,8.449 0,11.997 -10.75,19.75 -16.674,30.307 -5.372,9.572 -4.983,9.78 -9.412,21.408"
             style="fill:#ac8a1e;fill-opacity:1;fill-rule:evenodd;stroke:none"
             id="path3149" />
          <path
             inkscape:connector-curvature="0"
             d="m 323.957,251.2549 c -0.739,6.46 -4.613,11.811 -7.937,17.163 6.091,0.738 12.367,1.291 18.641,1.846 6.275,-23.253 -24.724,-56.981 -1.661,-63.764 12.75,-3.75 23.806,-24.636 2.769,-24.636 -2.214,4.245 -4.245,8.49 -6.278,12.734 -1.104,16.425 -2.212,33.034 -2.581,49.643 -0.552,2.77 -1.108,4.799 -2.953,7.014"
             style="fill:#ac8a1e;fill-opacity:1;fill-rule:evenodd;stroke:none"
             id="path3151" />
          <path
             inkscape:connector-curvature="0"
             d="m 221.1641,257.7148 c -0.924,4.429 -3.323,10.149 -1.108,14.578 0.873,0.811 1.65,1.043 2.398,0 1.663,-3.506 3.322,-5.905 3.691,-9.966 -1.66,-1.476 -3.322,-2.953 -4.981,-4.612"
             style="fill:#ffffff;fill-opacity:1;fill-rule:evenodd;stroke:none"
             id="path3153" />
          <path
             inkscape:connector-curvature="0"
             d="m 363.082,275.2461 c -3.691,2.215 -9.597,7.936 -10.151,11.996 5.906,1.846 10.889,4.799 16.24,8.121 7.014,-5.352 5.907,-14.764 -0.738,-19.562 -1.846,-0.977 -3.691,-0.985 -5.351,-0.555"
             style="fill:#ef6918;fill-opacity:1;fill-rule:evenodd;stroke:none"
             id="path3155" />
          <path
             inkscape:connector-curvature="0"
             d="m 248.6606,277.0918 c -53.704,10.704 -24.176,58.688 -7.566,91.906 9.412,12.735 21.777,9.965 28.791,-2.768 6.273,-23.807 6.273,-23.807 13.655,-46.876 1.846,-11.443 3.81,-21.038 -2.583,-31.558 -10.15,-10.151 -18.455,-10.335 -32.297,-10.704"
             style="fill:#ac8a1e;fill-opacity:1;fill-rule:evenodd;stroke:none"
             id="path3157" />
          <path
             inkscape:connector-curvature="0"
             d="m 251.0586,282.2598 c -2.028,0.555 -4.059,1.107 -5.903,1.477 14.394,7.751 25.652,14.579 35.248,28.419 0.368,0 0.738,-0.184 1.109,-0.369 0,-21.591 -9.968,-27.128 -30.454,-29.527"
             style="fill:#967426;fill-opacity:1;fill-rule:evenodd;stroke:none"
             id="path3159" />
          <path
             inkscape:connector-curvature="0"
             d="m 352.5615,324.5215 c 0,5.906 16.057,11.811 19.748,8.121 -4.798,-6.275 -12.18,-7.568 -19.748,-8.121"
             style="fill:#ffffff;fill-opacity:1;fill-rule:evenodd;stroke:none"
             id="path3161" />
          <path
             inkscape:connector-curvature="0"
             d="m 287.7959,348.5693 c -3.633,0.919 -8.869,4.188 -5.547,10.094 1.424,1.586 4.582,2.401 6.807,2.639 9.16,0.986 16.218,-7.8 4.636,-12.7 -1.912,-0.458 -3.391,-0.668 -5.896,-0.033"
             style="fill:#231f20;fill-opacity:1;fill-rule:evenodd;stroke:none"
             id="path3163" />
          <path
             inkscape:connector-curvature="0"
             d="m 293.875,390.959 c 14.949,-2.584 28.053,-10.15 34.142,-24.729 -8.304,-0.738 -11.443,-6.644 -3.507,-11.257 2.214,-0.667 7.565,0.308 8.423,0.634 0.184,-1.293 0.437,-2.849 0.807,-4.141 -23.626,4.244 -26.946,17.532 -39.678,37.833 -0.187,0.553 -0.187,1.107 -0.187,1.66"
             style="fill:#ac8a1e;fill-opacity:1;fill-rule:evenodd;stroke:none"
             id="path3165" />
          <path
             inkscape:connector-curvature="0"
             d="m 286.4941,356.2646 c -0.369,1.292 -0.924,1.292 -1.108,2.398 1.293,0.554 1.293,0.554 3.506,0.369 0.371,-0.369 -0.294,-0.737 0.074,-1.291 -0.554,-0.739 -0.663,-0.664 -1.032,-1.402 -0.925,0 -0.703,0.111 -1.44,-0.074"
             style="fill:#ffffff;fill-opacity:1;fill-rule:evenodd;stroke:none"
             id="path3167" />
          <path
             inkscape:connector-curvature="0"
             d="m 323.5527,361.0264 c -0.371,1.476 -0.557,0.516 0.183,1.623 2.954,0 2.436,0.812 1.881,-1.956 -0.921,-0.185 -1.328,0.518 -2.064,0.333"
             style="fill:#ffffff;fill-opacity:1;fill-rule:evenodd;stroke:none"
             id="path3169" />
          <path
             inkscape:connector-curvature="0"
             d="m 361.6553,290.873 c 3.497,-3.43 6.071,-7.368 7.804,-12.973 0.203,0.34 0.473,0.409 0.676,0.748 -0.668,3.821 -2.858,7.997 -7.326,12.904 -0.315,-0.272 -0.836,-0.408 -1.154,-0.679"
             style="fill:#aa2821;fill-opacity:1;fill-rule:evenodd;stroke:none"
             id="path3171" />
          <path
             inkscape:connector-curvature="0"
             d="m 324.4053,363.3672 c 1.18,0 2.136,-0.752 2.136,-1.682 0,-0.927 -0.956,-1.68 -2.136,-1.68 -1.181,0 -2.137,0.753 -2.137,1.68 0,0.93 0.956,1.682 2.137,1.682"
             style="fill:#ffffff;fill-opacity:1;fill-rule:evenodd;stroke:none"
             id="path3173" />
          <path
             inkscape:connector-curvature="0"
             d="m 287.5083,359.4043 c 1.304,0 2.361,-0.832 2.361,-1.856 0,-1.027 -1.057,-1.859 -2.361,-1.859 -1.304,0 -2.362,0.832 -2.362,1.859 0,1.024 1.058,1.856 2.362,1.856"
             style="fill:#ffffff;fill-opacity:1;fill-rule:evenodd;stroke:none"
             id="path3175" />
          <g
             id="g3177"
             transform="translate(199.0762,170.8096)">
            <path
               inkscape:connector-curvature="0"
               d="M 0,0 C -1.342,-1.496 -1.671,-3.451 -0.237,-4.738 1.196,-6.025 3.105,-5.486 4.448,-3.99 5.79,-2.494 6.119,-0.539 4.685,0.748 3.251,2.035 1.343,1.496 0,0 z m 4.646,11.699 c 0.838,0.936 2.175,1.088 3.131,0.23 0.956,-0.858 0.95,-2.202 0.111,-3.138 L 4.438,4.946 C 5.449,4.902 6.547,4.705 7.939,3.455 10.766,0.92 10.617,-3.637 7.689,-6.898 c -2.927,-3.264 -7.44,-3.904 -10.266,-1.368 -1.226,1.1 -1.741,2.2 -1.666,3.745 -0.676,-0.293 -1.66,-0.385 -2.45,0.323 -0.956,0.857 -0.95,2.202 -0.11,3.137 l 11.449,12.76 z"
               style="fill:none;stroke:#313837;stroke-width:1.995;stroke-linecap:butt;stroke-linejoin:miter;stroke-miterlimit:10;stroke-opacity:1;stroke-dasharray:none"
               id="path3179" />
          </g>
          <g
             id="g3181"
             transform="translate(217.6997,159.4307)">
            <path
               inkscape:connector-curvature="0"
               d="M 0,0 C 0.487,0.848 0.339,2.833 -1.138,3.682 -2.615,4.53 -4.405,3.658 -4.892,2.811 L 0,0 z m -6.381,0.22 c -0.459,-0.799 -0.605,-2.454 1.817,-3.847 1.864,-1.071 3.684,-0.539 4.556,-1.039 0.847,-0.487 1.198,-1.559 0.641,-2.527 -1.057,-1.84 -4.828,-1.285 -7.686,0.358 -4.068,2.338 -4.871,6.825 -2.686,10.628 2.087,3.632 6.66,5.256 10.535,3.029 C 4.525,4.68 5.127,0.178 3.235,-3.115 2.469,-4.447 1.659,-4.4 0.448,-3.705 L -6.381,0.22 z"
               style="fill:none;stroke:#313837;stroke-width:1.995;stroke-linecap:butt;stroke-linejoin:miter;stroke-miterlimit:10;stroke-opacity:1;stroke-dasharray:none"
               id="path3183" />
          </g>
          <g
             id="g3185"
             transform="translate(226.1875,153.6836)">
            <path
               inkscape:connector-curvature="0"
               d="m 0,0 c -0.729,-1.874 -0.346,-3.82 1.45,-4.519 1.796,-0.698 3.392,0.48 4.12,2.354 C 6.299,-0.29 5.917,1.655 4.121,2.354 2.324,3.052 0.728,1.874 0,0 z M 7.699,-8.715 C 7.244,-9.886 6.047,-10.5 4.849,-10.034 3.86,-9.649 3.499,-8.73 3.455,-7.995 2.109,-8.76 0.896,-8.798 -0.641,-8.2 c -3.54,1.375 -5.008,5.691 -3.42,9.778 1.588,4.087 5.586,6.278 9.126,4.903 C 6.601,5.884 7.471,5.037 7.947,3.563 8.476,4.077 9.363,4.511 10.353,4.126 11.55,3.661 12.019,2.4 11.564,1.229 L 7.699,-8.715 z"
               style="fill:none;stroke:#313837;stroke-width:1.995;stroke-linecap:butt;stroke-linejoin:miter;stroke-miterlimit:10;stroke-opacity:1;stroke-dasharray:none"
               id="path3187" />
          </g>
          <g
             id="g3189"
             transform="translate(245.709,151.0937)">
            <path
               inkscape:connector-curvature="0"
               d="m 0,0 c -1.867,0.478 -3.31,-0.884 -3.807,-2.831 -0.526,-2.057 0.102,-3.889 1.969,-4.365 1.866,-0.477 3.295,0.83 3.82,2.885 C 2.48,-2.362 1.867,-0.478 0,0 z m 4.724,-11.179 c -1.376,-5.383 -5.411,-6.513 -9.551,-5.456 -2.191,0.56 -6.089,2.449 -5.501,4.749 0.242,0.947 1.39,1.604 2.228,1.39 1.218,-0.312 1.684,-1.756 4.146,-2.385 2.624,-0.671 3.87,0.482 4.471,2.835 l -0.054,0.014 c -1.252,-1.064 -2.85,-1.001 -4.256,-0.642 -4.085,1.044 -5.209,5.107 -4.234,8.921 C -6.942,2.494 -3.238,5.15 0.442,4.21 2.038,3.802 3.002,3.065 3.652,1.661 4.116,2.233 4.945,2.771 5.973,2.509 7.217,2.19 7.834,0.995 7.523,-0.222 L 4.724,-11.179 z"
               style="fill:none;stroke:#313837;stroke-width:1.995;stroke-linecap:butt;stroke-linejoin:miter;stroke-miterlimit:10;stroke-opacity:1;stroke-dasharray:none"
               id="path3191" />
          </g>
          <g
             id="g3193"
             transform="translate(256.687,156.959)">
            <path
               inkscape:connector-curvature="0"
               d="M 0,0 C 0.218,1.237 1.272,2.073 2.538,1.851 3.803,1.628 4.509,0.483 4.292,-0.755 l -2.97,-16.891 c -0.218,-1.239 -1.272,-2.074 -2.538,-1.852 -1.265,0.223 -1.972,1.368 -1.754,2.606 L 0,0 z"
               style="fill:none;stroke:#313837;stroke-width:1.995;stroke-linecap:butt;stroke-linejoin:miter;stroke-miterlimit:10;stroke-opacity:1;stroke-dasharray:none"
               id="path3195" />
          </g>
          <g
             id="g3197"
             transform="translate(271.563,144.5537)">
            <path
               inkscape:connector-curvature="0"
               d="M 0,0 C 0.103,0.971 -0.835,2.727 -2.53,2.906 -4.224,3.084 -5.507,1.562 -5.61,0.592 L 0,0 z m -5.923,-2.381 c -0.097,-0.916 0.439,-2.488 3.216,-2.781 2.139,-0.227 3.587,0.997 4.587,0.891 0.972,-0.102 1.726,-0.94 1.609,-2.051 -0.223,-2.11 -3.896,-3.127 -7.173,-2.782 -4.666,0.493 -7.215,4.272 -6.755,8.632 0.439,4.165 3.964,7.5 8.407,7.032 C 2.245,6.108 4.616,2.236 4.218,-1.541 4.057,-3.068 3.297,-3.354 1.908,-3.207 l -7.831,0.826 z"
               style="fill:none;stroke:#313837;stroke-width:1.995;stroke-linecap:butt;stroke-linejoin:miter;stroke-miterlimit:10;stroke-opacity:1;stroke-dasharray:none"
               id="path3199" />
          </g>
          <g
             id="g3201"
             transform="translate(282.4268,142.3701)">
            <path
               inkscape:connector-curvature="0"
               d="M 0,0 C -0.025,-2.01 1.015,-3.699 2.941,-3.723 4.868,-3.747 5.95,-2.085 5.976,-0.074 6.001,1.936 4.961,3.625 3.034,3.648 1.107,3.673 0.025,2.012 0,0 z m -4.208,11.867 c 0.016,1.256 0.922,2.25 2.207,2.235 1.284,-0.016 2.165,-1.034 2.149,-2.289 L 0.083,6.646 C 0.873,7.279 1.83,7.854 3.701,7.83 7.499,7.781 10.387,4.255 10.332,-0.129 10.276,-4.514 7.301,-7.967 3.503,-7.92 c -1.648,0.022 -2.758,0.51 -3.721,1.723 -0.315,-0.666 -0.994,-1.383 -2.055,-1.37 -1.285,0.016 -2.166,1.032 -2.15,2.289 l 0.215,17.145 z"
               style="fill:none;stroke:#313837;stroke-width:1.995;stroke-linecap:butt;stroke-linejoin:miter;stroke-miterlimit:10;stroke-opacity:1;stroke-dasharray:none"
               id="path3203" />
          </g>
          <g
             id="g3205"
             transform="translate(298.375,142.6182)">
            <path
               inkscape:connector-curvature="0"
               d="M 0,0 C 0.151,-2.006 1.336,-3.597 3.257,-3.451 5.179,-3.306 6.11,-1.555 5.959,0.45 5.808,2.455 4.623,4.046 2.701,3.9 0.78,3.756 -0.152,2.004 0,0 z m 10.303,0.778 c 0.331,-4.372 -2.33,-8.073 -6.73,-8.407 -4.4,-0.332 -7.587,2.928 -7.918,7.3 -0.33,4.372 2.33,8.074 6.731,8.407 4.399,0.332 7.587,-2.928 7.917,-7.3 z"
               style="fill:none;stroke:#313837;stroke-width:1.995;stroke-linecap:butt;stroke-linejoin:miter;stroke-miterlimit:10;stroke-opacity:1;stroke-dasharray:none"
               id="path3207" />
          </g>
          <g
             id="g3209"
             transform="translate(314.2402,144.2646)">
            <path
               inkscape:connector-curvature="0"
               d="m 0,0 c 0.338,-1.982 1.666,-3.455 3.565,-3.131 1.9,0.324 2.664,2.154 2.326,4.137 C 5.553,2.987 4.225,4.461 2.325,4.137 0.426,3.813 -0.339,1.982 0,0 z M 11.082,-3.52 C 11.294,-4.758 10.582,-5.898 9.316,-6.115 8.271,-6.294 7.487,-5.691 7.071,-5.082 6.311,-6.43 5.289,-7.086 3.665,-7.363 -0.078,-8.002 -3.557,-5.055 -4.294,-0.733 -5.032,3.588 -2.729,7.522 1.015,8.162 2.639,8.439 3.819,8.159 4.985,7.141 5.175,7.853 5.714,8.681 6.76,8.859 8.025,9.076 9.076,8.234 9.287,6.996 L 11.082,-3.52 z"
               style="fill:none;stroke:#313837;stroke-width:1.995;stroke-linecap:butt;stroke-linejoin:miter;stroke-miterlimit:10;stroke-opacity:1;stroke-dasharray:none"
               id="path3211" />
          </g>
          <g
             id="g3213"
             transform="translate(325.9004,151.9111)">
            <path
               inkscape:connector-curvature="0"
               d="M 0,0 C -0.32,1.216 0.288,2.416 1.531,2.742 2.665,3.041 3.56,2.497 3.993,1.947 4.475,2.969 5.295,4.022 6.483,4.336 7.563,4.62 8.871,4.04 9.22,2.717 9.604,1.258 8.589,0.615 7.17,-0.249 5.476,-1.272 5.01,-1.915 5.578,-4.076 L 6.93,-9.207 c 0.32,-1.216 -0.288,-2.416 -1.532,-2.742 -1.242,-0.328 -2.362,0.418 -2.681,1.633 L 0,0 z"
               style="fill:none;stroke:#313837;stroke-width:1.995;stroke-linecap:butt;stroke-linejoin:miter;stroke-miterlimit:10;stroke-opacity:1;stroke-dasharray:none"
               id="path3215" />
          </g>
          <g
             id="g3217"
             transform="translate(340.7539,150.6377)">
            <path
               inkscape:connector-curvature="0"
               d="M 0,0 C 0.698,-1.886 2.275,-3.09 4.083,-2.421 5.891,-1.752 6.305,0.187 5.607,2.074 4.909,3.961 3.332,5.164 1.524,4.496 -0.283,3.827 -0.697,1.887 0,0 z M 11.545,-1.418 C 11.98,-2.598 11.491,-3.851 10.286,-4.297 9.29,-4.664 8.41,-4.217 7.889,-3.693 7.389,-5.16 6.506,-5.992 4.96,-6.564 c -3.564,-1.318 -7.525,0.939 -9.047,5.052 -1.521,4.114 0.019,8.407 3.582,9.725 1.755,0.648 2.85,0.428 3.806,0.097 l -1.792,4.846 c -0.437,1.18 0.053,2.432 1.259,2.878 1.205,0.446 2.391,-0.187 2.828,-1.366 l 5.949,-16.086 z"
               style="fill:none;stroke:#313837;stroke-width:1.995;stroke-linecap:butt;stroke-linejoin:miter;stroke-miterlimit:10;stroke-opacity:1;stroke-dasharray:none"
               id="path3219" />
          </g>
          <g
             id="g3221"
             transform="translate(356.5293,153.9443)">
            <path
               inkscape:connector-curvature="0"
               d="M 0,0 C 1.177,0.582 2.673,0.077 3.255,-1.099 3.85,-2.3 3.332,-3.771 2.156,-4.354 0.98,-4.937 -0.504,-4.456 -1.099,-3.255 -1.682,-2.078 -1.176,-0.582 0,0 z"
               style="fill:none;stroke:#313837;stroke-width:1.995;stroke-linecap:butt;stroke-linejoin:miter;stroke-miterlimit:10;stroke-opacity:1;stroke-dasharray:none"
               id="path3223" />
          </g>
          <g
             id="g3225"
             transform="translate(363.3311,161.1006)">
            <path
               inkscape:connector-curvature="0"
               d="M 0,0 C 1.119,-1.67 2.934,-2.471 4.534,-1.396 6.135,-0.324 6.083,1.658 4.964,3.328 3.844,4.998 2.029,5.799 0.43,4.727 -1.171,3.652 -1.119,1.67 0,0 z m 8.582,5.754 c 2.44,-3.642 1.949,-8.174 -1.716,-10.63 -3.664,-2.457 -8.043,-1.19 -10.484,2.451 -2.442,3.642 -1.949,8.173 1.715,10.63 3.665,2.457 8.044,1.19 10.485,-2.451 z"
               style="fill:none;stroke:#313837;stroke-width:1.995;stroke-linecap:butt;stroke-linejoin:miter;stroke-miterlimit:10;stroke-opacity:1;stroke-dasharray:none"
               id="path3227" />
          </g>
          <g
             id="g3229"
             transform="translate(369.8643,172.374)">
            <path
               inkscape:connector-curvature="0"
               d="M 0,0 C -0.893,0.885 -0.979,2.227 -0.074,3.14 0.751,3.973 1.798,3.958 2.45,3.704 2.347,4.829 2.519,6.152 3.383,7.025 4.169,7.819 5.59,7.983 6.562,7.021 7.633,5.959 7.085,4.891 6.303,3.426 5.362,1.684 5.287,0.894 6.874,-0.679 l 3.77,-3.733 c 0.892,-0.885 0.977,-2.228 0.073,-3.14 -0.904,-0.913 -2.247,-0.84 -3.14,0.044 L 0,0 z"
               style="fill:none;stroke:#313837;stroke-width:1.995;stroke-linecap:butt;stroke-linejoin:miter;stroke-miterlimit:10;stroke-opacity:1;stroke-dasharray:none"
               id="path3231" />
          </g>
          <g
             id="g3233"
             transform="translate(381.7637,185.0361)">
            <path
               inkscape:connector-curvature="0"
               d="M 0,0 C -0.806,-1.751 0.273,-3.416 2.101,-4.256 4.029,-5.143 5.944,-4.855 6.75,-3.105 7.556,-1.354 6.527,0.287 4.599,1.174 2.771,2.015 0.806,1.751 0,0 z m 11.85,2.635 c 5.049,-2.323 5.435,-6.497 3.649,-10.379 -0.945,-2.057 -3.506,-5.551 -5.663,-4.559 -0.888,0.408 -1.328,1.657 -0.967,2.444 0.526,1.14 2.031,1.339 3.094,3.649 1.132,2.462 0.223,3.894 -1.984,4.909 L 9.955,-1.352 C 10.776,-2.773 10.427,-4.336 9.82,-5.654 8.058,-9.486 3.857,-9.86 0.279,-8.215 c -3.983,1.833 -5.929,5.957 -4.341,9.408 0.688,1.496 1.586,2.313 3.085,2.7 -0.48,0.558 -0.86,1.471 -0.416,2.435 0.538,1.168 1.824,1.56 2.966,1.034 L 11.85,2.635 z"
               style="fill:none;stroke:#313837;stroke-width:1.995;stroke-linecap:butt;stroke-linejoin:miter;stroke-miterlimit:10;stroke-opacity:1;stroke-dasharray:none"
               id="path3235" />
          </g>
          <path
             inkscape:connector-curvature="0"
             d="m 199.0762,170.8096 c -1.342,-1.496 -1.671,-3.451 -0.237,-4.738 1.433,-1.287 3.342,-0.748 4.685,0.748 1.342,1.496 1.671,3.451 0.237,4.738 -1.434,1.287 -3.342,0.748 -4.685,-0.748 m 4.646,11.699 c 0.838,0.936 2.175,1.088 3.131,0.23 0.956,-0.858 0.95,-2.202 0.111,-3.138 l -3.45,-3.845 c 1.011,-0.044 2.109,-0.241 3.501,-1.491 2.827,-2.535 2.678,-7.092 -0.25,-10.353 -2.927,-3.264 -7.44,-3.904 -10.266,-1.368 -1.226,1.1 -1.741,2.2 -1.666,3.745 -0.676,-0.293 -1.66,-0.385 -2.45,0.323 -0.956,0.857 -0.95,2.202 -0.11,3.137 l 11.449,12.76 z"
             style="fill:#a47c1f;fill-opacity:1;fill-rule:nonzero;stroke:none"
             id="path3237" />
          <path
             inkscape:connector-curvature="0"
             d="m 217.6997,159.4307 c 0.487,0.848 0.339,2.833 -1.138,3.682 -1.477,0.848 -3.267,-0.024 -3.754,-0.871 l 4.892,-2.811 z m -6.381,0.22 c -0.459,-0.799 -0.605,-2.454 1.817,-3.847 1.864,-1.071 3.684,-0.539 4.556,-1.039 0.847,-0.487 1.198,-1.559 0.641,-2.527 -1.057,-1.84 -4.828,-1.285 -7.686,0.358 -4.068,2.338 -4.871,6.825 -2.686,10.628 2.087,3.632 6.66,5.256 10.535,3.029 3.729,-2.142 4.331,-6.644 2.439,-9.937 -0.766,-1.332 -1.576,-1.285 -2.787,-0.59 l -6.829,3.925 z"
             style="fill:#a47c1f;fill-opacity:1;fill-rule:nonzero;stroke:none"
             id="path3239" />
          <path
             inkscape:connector-curvature="0"
             d="m 226.1875,153.6836 c -0.729,-1.874 -0.346,-3.82 1.45,-4.519 1.796,-0.698 3.392,0.48 4.12,2.354 0.729,1.875 0.347,3.82 -1.449,4.519 -1.797,0.698 -3.393,-0.48 -4.121,-2.354 m 7.699,-8.715 c -0.455,-1.171 -1.652,-1.785 -2.85,-1.319 -0.989,0.385 -1.35,1.304 -1.394,2.039 -1.346,-0.765 -2.559,-0.803 -4.096,-0.205 -3.54,1.375 -5.008,5.691 -3.42,9.778 1.588,4.087 5.586,6.278 9.126,4.903 1.536,-0.597 2.406,-1.444 2.882,-2.918 0.529,0.514 1.416,0.948 2.406,0.563 1.197,-0.465 1.666,-1.726 1.211,-2.897 l -3.865,-9.944 z"
             style="fill:#a47c1f;fill-opacity:1;fill-rule:nonzero;stroke:none"
             id="path3241" />
          <path
             inkscape:connector-curvature="0"
             d="m 245.709,151.0937 c -1.867,0.478 -3.31,-0.884 -3.807,-2.831 -0.526,-2.057 0.102,-3.889 1.969,-4.365 1.866,-0.477 3.295,0.83 3.82,2.885 0.498,1.949 -0.115,3.833 -1.982,4.311 m 4.724,-11.179 c -1.376,-5.383 -5.411,-6.513 -9.551,-5.456 -2.191,0.56 -6.089,2.449 -5.501,4.749 0.242,0.947 1.39,1.604 2.228,1.39 1.218,-0.312 1.684,-1.756 4.146,-2.385 2.624,-0.671 3.87,0.482 4.471,2.835 l -0.054,0.014 c -1.252,-1.064 -2.85,-1.001 -4.256,-0.642 -4.085,1.044 -5.209,5.107 -4.234,8.921 1.085,4.247 4.789,6.903 8.469,5.963 1.596,-0.408 2.56,-1.145 3.21,-2.549 0.464,0.572 1.293,1.11 2.321,0.848 1.244,-0.319 1.861,-1.514 1.55,-2.731 l -2.799,-10.957 z"
             style="fill:#a47c1f;fill-opacity:1;fill-rule:nonzero;stroke:none"
             id="path3243" />
          <path
             inkscape:connector-curvature="0"
             d="m 256.687,156.959 c 0.218,1.237 1.272,2.073 2.538,1.851 1.265,-0.223 1.971,-1.368 1.754,-2.606 l -2.97,-16.891 c -0.218,-1.239 -1.272,-2.074 -2.538,-1.852 -1.265,0.223 -1.972,1.368 -1.754,2.606 l 2.97,16.892 z"
             style="fill:#a47c1f;fill-opacity:1;fill-rule:nonzero;stroke:none"
             id="path3245" />
          <path
             inkscape:connector-curvature="0"
             d="m 271.563,144.5537 c 0.103,0.971 -0.835,2.727 -2.53,2.906 -1.694,0.178 -2.977,-1.344 -3.08,-2.314 l 5.61,-0.592 z m -5.923,-2.381 c -0.097,-0.916 0.439,-2.488 3.216,-2.781 2.139,-0.227 3.587,0.997 4.587,0.891 0.972,-0.102 1.726,-0.94 1.609,-2.051 -0.223,-2.11 -3.896,-3.127 -7.173,-2.782 -4.666,0.493 -7.215,4.272 -6.755,8.632 0.439,4.165 3.964,7.5 8.407,7.032 4.277,-0.452 6.648,-4.324 6.25,-8.101 -0.161,-1.527 -0.921,-1.813 -2.31,-1.666 l -7.831,0.826 z"
             style="fill:#a47c1f;fill-opacity:1;fill-rule:nonzero;stroke:none"
             id="path3247" />
          <path
             inkscape:connector-curvature="0"
             d="m 282.4268,142.3701 c -0.025,-2.01 1.015,-3.699 2.941,-3.723 1.927,-0.024 3.009,1.638 3.035,3.649 0.025,2.01 -1.015,3.699 -2.942,3.722 -1.927,0.025 -3.009,-1.636 -3.034,-3.648 m -4.208,11.867 c 0.016,1.256 0.922,2.25 2.207,2.235 1.284,-0.016 2.165,-1.034 2.149,-2.289 l -0.065,-5.167 c 0.79,0.633 1.747,1.208 3.618,1.184 3.798,-0.049 6.686,-3.575 6.631,-7.959 -0.056,-4.385 -3.031,-7.838 -6.829,-7.791 -1.648,0.022 -2.758,0.51 -3.721,1.723 -0.315,-0.666 -0.994,-1.383 -2.055,-1.37 -1.285,0.016 -2.166,1.032 -2.15,2.289 l 0.215,17.145 z"
             style="fill:#ef551f;fill-opacity:1;fill-rule:nonzero;stroke:none"
             id="path3249" />
          <path
             inkscape:connector-curvature="0"
             d="m 298.375,142.6182 c 0.151,-2.006 1.336,-3.597 3.257,-3.451 1.922,0.145 2.853,1.896 2.702,3.901 -0.151,2.005 -1.336,3.596 -3.258,3.45 -1.921,-0.144 -2.853,-1.896 -2.701,-3.9 m 10.303,0.778 c 0.331,-4.372 -2.33,-8.073 -6.73,-8.407 -4.4,-0.332 -7.587,2.928 -7.918,7.3 -0.33,4.372 2.33,8.074 6.731,8.407 4.399,0.332 7.587,-2.928 7.917,-7.3"
             style="fill:#ef551f;fill-opacity:1;fill-rule:nonzero;stroke:none"
             id="path3251" />
          <path
             inkscape:connector-curvature="0"
             d="m 314.2402,144.2646 c 0.338,-1.982 1.666,-3.455 3.565,-3.131 1.9,0.324 2.664,2.154 2.326,4.137 -0.338,1.981 -1.666,3.455 -3.566,3.131 -1.899,-0.324 -2.664,-2.155 -2.325,-4.137 m 11.082,-3.52 c 0.212,-1.238 -0.5,-2.378 -1.766,-2.595 -1.045,-0.179 -1.829,0.424 -2.245,1.033 -0.76,-1.348 -1.782,-2.004 -3.406,-2.281 -3.743,-0.639 -7.222,2.308 -7.959,6.63 -0.738,4.321 1.565,8.255 5.309,8.895 1.624,0.277 2.804,-0.003 3.97,-1.021 0.19,0.712 0.729,1.54 1.775,1.718 1.265,0.217 2.316,-0.625 2.527,-1.863 l 1.795,-10.516 z"
             style="fill:#ef551f;fill-opacity:1;fill-rule:nonzero;stroke:none"
             id="path3253" />
          <path
             inkscape:connector-curvature="0"
             d="m 325.9004,151.9111 c -0.32,1.216 0.288,2.416 1.531,2.742 1.134,0.299 2.029,-0.245 2.462,-0.795 0.482,1.022 1.302,2.075 2.49,2.389 1.08,0.284 2.388,-0.296 2.737,-1.619 0.384,-1.459 -0.631,-2.102 -2.05,-2.966 -1.694,-1.023 -2.16,-1.666 -1.592,-3.827 l 1.352,-5.131 c 0.32,-1.216 -0.288,-2.416 -1.532,-2.742 -1.242,-0.328 -2.362,0.418 -2.681,1.633 l -2.717,10.316 z"
             style="fill:#ef551f;fill-opacity:1;fill-rule:nonzero;stroke:none"
             id="path3255" />
          <path
             inkscape:connector-curvature="0"
             d="m 340.7539,150.6377 c 0.698,-1.886 2.275,-3.09 4.083,-2.421 1.808,0.669 2.222,2.608 1.524,4.495 -0.698,1.887 -2.275,3.09 -4.083,2.422 -1.807,-0.669 -2.221,-2.609 -1.524,-4.496 m 11.545,-1.418 c 0.435,-1.18 -0.054,-2.433 -1.259,-2.879 -0.996,-0.367 -1.876,0.08 -2.397,0.604 -0.5,-1.467 -1.383,-2.299 -2.929,-2.871 -3.564,-1.318 -7.525,0.939 -9.047,5.052 -1.521,4.114 0.019,8.407 3.582,9.725 1.755,0.648 2.85,0.428 3.806,0.097 l -1.792,4.846 c -0.437,1.18 0.053,2.432 1.259,2.878 1.205,0.446 2.391,-0.187 2.828,-1.366 l 5.949,-16.086 z"
             style="fill:#ef551f;fill-opacity:1;fill-rule:nonzero;stroke:none"
             id="path3257" />
          <path
             inkscape:connector-curvature="0"
             d="m 356.5293,153.9443 c 1.177,0.582 2.673,0.077 3.255,-1.099 0.595,-1.201 0.077,-2.672 -1.099,-3.255 -1.176,-0.583 -2.66,-0.102 -3.255,1.099 -0.583,1.177 -0.077,2.673 1.099,3.255"
             style="fill:#ef551f;fill-opacity:1;fill-rule:nonzero;stroke:none"
             id="path3259" />
          <path
             inkscape:connector-curvature="0"
             d="m 363.3311,161.1006 c 1.119,-1.67 2.934,-2.471 4.534,-1.396 1.601,1.072 1.549,3.054 0.43,4.724 -1.12,1.67 -2.935,2.471 -4.534,1.399 -1.601,-1.075 -1.549,-3.057 -0.43,-4.727 m 8.582,5.754 c 2.44,-3.642 1.949,-8.174 -1.716,-10.63 -3.664,-2.457 -8.043,-1.19 -10.484,2.451 -2.442,3.642 -1.949,8.173 1.715,10.63 3.665,2.457 8.044,1.19 10.485,-2.451"
             style="fill:#ef551f;fill-opacity:1;fill-rule:nonzero;stroke:none"
             id="path3261" />
          <path
             inkscape:connector-curvature="0"
             d="m 369.8643,172.374 c -0.893,0.885 -0.979,2.227 -0.074,3.14 0.825,0.833 1.872,0.818 2.524,0.564 -0.103,1.125 0.069,2.448 0.933,3.321 0.786,0.794 2.207,0.958 3.179,-0.004 1.071,-1.062 0.523,-2.13 -0.259,-3.595 -0.941,-1.742 -1.016,-2.532 0.571,-4.105 l 3.77,-3.733 c 0.892,-0.885 0.977,-2.228 0.073,-3.14 -0.904,-0.913 -2.247,-0.84 -3.14,0.044 l -7.577,7.508 z"
             style="fill:#ef551f;fill-opacity:1;fill-rule:nonzero;stroke:none"
             id="path3263" />
          <path
             inkscape:connector-curvature="0"
             d="m 381.7637,185.0361 c -0.806,-1.751 0.273,-3.416 2.101,-4.256 1.928,-0.887 3.843,-0.599 4.649,1.151 0.806,1.751 -0.223,3.392 -2.151,4.279 -1.828,0.841 -3.793,0.577 -4.599,-1.174 m 11.85,2.635 c 5.049,-2.323 5.435,-6.497 3.649,-10.379 -0.945,-2.057 -3.506,-5.551 -5.663,-4.559 -0.888,0.408 -1.328,1.657 -0.967,2.444 0.526,1.14 2.031,1.339 3.094,3.649 1.132,2.462 0.223,3.894 -1.984,4.909 l -0.024,-0.051 c 0.821,-1.421 0.472,-2.984 -0.135,-4.302 -1.762,-3.832 -5.963,-4.206 -9.541,-2.561 -3.983,1.833 -5.929,5.957 -4.341,9.408 0.688,1.496 1.586,2.313 3.085,2.7 -0.48,0.558 -0.86,1.471 -0.416,2.435 0.538,1.168 1.824,1.56 2.966,1.034 l 10.277,-4.727 z"
             style="fill:#ef551f;fill-opacity:1;fill-rule:nonzero;stroke:none"
             id="path3265" />
          <path
             inkscape:connector-curvature="0"
             d="m 307.5215,279.6123 c -6.433,0.285 -14.379,-7.08 -14.979,-8.17 l -0.204,0 -3.88,0 -0.204,0 c -0.599,1.09 -8.545,8.455 -14.977,8.17 -6.155,-0.272 -9.15,-11.328 -5.338,-19.28 3.813,-7.951 16.558,-1.796 20.261,3.594 l 0.476,0 3.445,0 0.476,0 c 3.702,-5.39 16.447,-11.545 20.26,-3.594 3.812,7.952 0.818,19.008 -5.336,19.28"
             style="fill:#231f20;fill-opacity:1;fill-rule:nonzero;stroke:none"
             id="path3267" />
          <g
             id="g3269"
             transform="translate(286.8384,264.5801)">
            <path
               inkscape:connector-curvature="0"
               d="m 0,0 0,5.828 c -2.07,0 -8.877,10e-4 -13.943,7.243"
               style="fill:none;stroke:#a7a5a6;stroke-width:1;stroke-linecap:round;stroke-linejoin:miter;stroke-miterlimit:10;stroke-opacity:1;stroke-dasharray:none"
               id="path3271" />
          </g>
          <path
             inkscape:connector-curvature="0"
             d="m 254.9277,274.0312 c 0,0 12.288,-32.012 35.567,-44.944 21.826,14.227 35.245,41.387 35.245,41.387 l 12.77,0.808 c 9.216,-15.521 5.368,-50.631 0.842,-63.564 0,0 -11.352,-3.468 -16.278,-9.8 l -25.074,-6.168 -14,-3.75 -16.785,11.501 -26.837,7.275 c -5.658,24.413 -6.628,50.279 2.588,67.092 l 11.962,0.163 z"
             style="fill:#231f20;fill-opacity:1;fill-rule:nonzero;stroke:none"
             id="path3273" />
          <g
             id="g3275"
             transform="translate(342.3906,257.2168)">
            <path
               inkscape:connector-curvature="0"
               d="m 0,0 -12.125,-2.908 5.173,-7.6 c 0,0 -13.741,-11.639 -45.106,-18.43"
               style="fill:none;stroke:#a7a5a6;stroke-width:1;stroke-linecap:round;stroke-linejoin:miter;stroke-miterlimit:10;stroke-opacity:1;stroke-dasharray:none"
               id="path3277" />
          </g>
          <g
             id="g3279"
             transform="translate(238.2754,257.2168)">
            <path
               inkscape:connector-curvature="0"
               d="m 0,0 12.125,-2.908 -5.173,-7.6 c 0,0 13.742,-11.639 45.106,-18.43"
               style="fill:none;stroke:#a7a5a6;stroke-width:1;stroke-linecap:round;stroke-linejoin:miter;stroke-miterlimit:10;stroke-opacity:1;stroke-dasharray:none"
               id="path3281" />
          </g>
          <g
             id="g3283"
             transform="translate(246.8452,231.5117)">
            <path
               inkscape:connector-curvature="0"
               d="M 0,0 C 0,0 4.543,-15.256 5.837,-21.237"
               style="fill:none;stroke:#a7a5a6;stroke-width:1;stroke-linecap:round;stroke-linejoin:miter;stroke-miterlimit:10;stroke-opacity:1;stroke-dasharray:none"
               id="path3285" />
          </g>
          <g
             id="g3287"
             transform="translate(276.4297,223.2666)">
            <path
               inkscape:connector-curvature="0"
               d="M 0,0 1.132,-18.915"
               style="fill:none;stroke:#a7a5a6;stroke-width:1;stroke-linecap:round;stroke-linejoin:miter;stroke-miterlimit:10;stroke-opacity:1;stroke-dasharray:none"
               id="path3289" />
          </g>
          <path
             inkscape:connector-curvature="0"
             d="m 284.0278,205.1602 c -9.214,-0.971 -30.069,2.264 -38.153,8.568 2.101,-6.143 2.424,-15.843 3.88,-18.268 1.455,-2.426 7.598,-5.011 15.358,-5.011 7.76,0 16.328,0.809 17.299,3.88 0.97,3.07 1.616,10.831 1.616,10.831"
             style="fill:#ffffff;fill-opacity:1;fill-rule:nonzero;stroke:none"
             id="path3291" />
          <g
             id="g3293"
             transform="translate(284.0278,205.1602)">
            <path
               inkscape:connector-curvature="0"
               d="m 0,0 c -9.214,-0.971 -30.069,2.264 -38.153,8.568 2.101,-6.143 2.424,-15.843 3.88,-18.268 1.455,-2.426 7.598,-5.011 15.358,-5.011 7.76,0 16.328,0.809 17.299,3.88 C -0.646,-7.761 0,0 0,0 z"
               style="fill:none;stroke:#a7a5a6;stroke-width:0.91299999;stroke-linecap:butt;stroke-linejoin:miter;stroke-miterlimit:10;stroke-opacity:1;stroke-dasharray:none"
               id="path3295" />
          </g>
          <path
             inkscape:connector-curvature="0"
             d="m 253.6348,205.2402 c 0,-1.74 -0.832,-3.152 -1.859,-3.152 -1.027,0 -1.86,1.412 -1.86,3.152 0,1.741 0.833,3.153 1.86,3.153 1.027,0 1.859,-1.412 1.859,-3.153"
             style="fill:#231f20;fill-opacity:1;fill-rule:nonzero;stroke:none"
             id="path3297" />
          <g
             id="g3299"
             transform="translate(334.7354,231.5117)">
            <path
               inkscape:connector-curvature="0"
               d="M 0,0 C 0,0 -4.828,-15.256 -6.122,-21.237"
               style="fill:none;stroke:#a7a5a6;stroke-width:1;stroke-linecap:round;stroke-linejoin:miter;stroke-miterlimit:10;stroke-opacity:1;stroke-dasharray:none"
               id="path3301" />
          </g>
          <g
             id="g3303"
             transform="translate(305.1504,223.2666)">
            <path
               inkscape:connector-curvature="0"
               d="M 0,0 -1.132,-18.915"
               style="fill:none;stroke:#a7a5a6;stroke-width:1;stroke-linecap:round;stroke-linejoin:miter;stroke-miterlimit:10;stroke-opacity:1;stroke-dasharray:none"
               id="path3305" />
          </g>
          <path
             inkscape:connector-curvature="0"
             d="m 297.5522,205.1602 c 9.215,-0.971 30.07,2.264 38.154,8.568 -2.102,-6.143 -2.426,-15.843 -3.881,-18.268 -1.455,-2.426 -7.598,-5.011 -15.357,-5.011 -7.761,0 -16.329,0.809 -17.3,3.88 -0.97,3.07 -1.616,10.831 -1.616,10.831"
             style="fill:#ffffff;fill-opacity:1;fill-rule:nonzero;stroke:none"
             id="path3307" />
          <g
             id="g3309"
             transform="translate(297.5522,205.1602)">
            <path
               inkscape:connector-curvature="0"
               d="M 0,0 C 9.215,-0.971 30.07,2.264 38.154,8.568 36.052,2.425 35.728,-7.275 34.273,-9.7 c -1.455,-2.426 -7.598,-5.011 -15.357,-5.011 -7.761,0 -16.329,0.809 -17.3,3.88 C 0.646,-7.761 0,0 0,0 z"
               style="fill:none;stroke:#a7a5a6;stroke-width:0.91299999;stroke-linecap:butt;stroke-linejoin:miter;stroke-miterlimit:10;stroke-opacity:1;stroke-dasharray:none"
               id="path3311" />
          </g>
          <path
             inkscape:connector-curvature="0"
             d="m 327.9443,205.2402 c 0,-1.74 0.833,-3.152 1.861,-3.152 1.027,0 1.859,1.412 1.859,3.152 0,1.741 -0.832,3.153 -1.859,3.153 -1.028,0 -1.861,-1.412 -1.861,-3.153"
             style="fill:#231f20;fill-opacity:1;fill-rule:nonzero;stroke:none"
             id="path3313" />
          <g
             id="g3315"
             transform="translate(293.9595,264.5801)">
            <path
               inkscape:connector-curvature="0"
               d="m 0,0 0,5.828 c 2.07,0 8.877,10e-4 13.942,7.243"
               style="fill:none;stroke:#a7a5a6;stroke-width:1;stroke-linecap:round;stroke-linejoin:miter;stroke-miterlimit:10;stroke-opacity:1;stroke-dasharray:none"
               id="path3317" />
          </g>
        </g>
      </g>
    </g>
  </g>
  <g
     inkscape:groupmode="layer"
     id="layer2"
     inkscape:label="Logo">
    <g
       style="overflow:visible;fill:#c8c8c9;fill-opacity:1"
       id="g3946"
       transform="matrix(2.7519756,0,0,2.7519756,842.35276,388.27368)">
      <g
         i:rgbTrio="#4F008000FFFF"
         i:dimmedPercent="50"
         i:layer="yes"
         id="Layer_1"
         style="fill:#c8c8c9;fill-opacity:1">
        <g
           id="g3916"
           transform="matrix(0.98323459,0,0,0.98323459,-0.0013766,1.8181967)"
           style="fill:#c8c8c9;fill-opacity:1">
          <path
             id="path3918"
             d="m 51.986,57.297 c -1.797,0.025 0.34,0.926 2.686,1.287 0.648,-0.506 1.236,-1.018 1.76,-1.516 -1.461,0.358 -2.948,0.366 -4.446,0.229"
             i:knockout="Off"
             inkscape:connector-curvature="0"
             style="fill:#c8c8c9;fill-opacity:1" />
          <path
             id="path3920"
             d="m 61.631,54.893 c 1.07,-1.477 1.85,-3.094 2.125,-4.766 -0.24,1.192 -0.887,2.221 -1.496,3.307 -3.359,2.115 -0.316,-1.256 -0.002,-2.537 -3.612,4.546 -0.496,2.726 -0.627,3.996"
             i:knockout="Off"
             inkscape:connector-curvature="0"
             style="fill:#c8c8c9;fill-opacity:1" />
          <path
             id="path3922"
             d="m 65.191,45.629 c 0.217,-3.236 -0.637,-2.213 -0.924,-0.978 0.335,0.174 0.6,2.281 0.924,0.978"
             i:knockout="Off"
             inkscape:connector-curvature="0"
             style="fill:#c8c8c9;fill-opacity:1" />
          <path
             id="path3924"
             d="m 45.172,1.399 c 0.959,0.172 2.072,0.304 1.916,0.533 1.049,-0.23 1.287,-0.442 -1.916,-0.533"
             i:knockout="Off"
             inkscape:connector-curvature="0"
             style="fill:#c8c8c9;fill-opacity:1" />
          <path
             id="path3926"
             d="M 47.088,1.932 46.41,2.072 47.041,2.016 47.088,1.932"
             i:knockout="Off"
             inkscape:connector-curvature="0"
             style="fill:#c8c8c9;fill-opacity:1" />
          <path
             id="path3928"
             d="m 76.992,46.856 c 0.107,2.906 -0.85,4.316 -1.713,6.812 l -1.553,0.776 c -1.271,2.468 0.123,1.567 -0.787,3.53 -1.984,1.764 -6.021,5.52 -7.313,5.863 -0.943,-0.021 0.639,-1.113 0.846,-1.541 -2.656,1.824 -2.131,2.738 -6.193,3.846 L 60.16,65.878 C 50.142,70.591 36.226,61.251 36.409,48.507 c -0.107,0.809 -0.304,0.607 -0.526,0.934 -0.517,-6.557 3.028,-13.143 9.007,-15.832 5.848,-2.895 12.704,-1.707 16.893,2.197 -2.301,-3.014 -6.881,-6.209 -12.309,-5.91 -5.317,0.084 -10.291,3.463 -11.951,7.131 -2.724,1.715 -3.04,6.611 -4.227,7.507 -1.597,11.737 3.004,16.808 10.787,22.773 1.225,0.826 0.345,0.951 0.511,1.58 -2.586,-1.211 -4.954,-3.039 -6.901,-5.277 1.033,1.512 2.148,2.982 3.589,4.137 -2.438,-0.826 -5.695,-5.908 -6.646,-6.115 4.203,7.525 17.052,13.197 23.78,10.383 -3.113,0.115 -7.068,0.064 -10.566,-1.229 -1.469,-0.756 -3.467,-2.322 -3.11,-2.615 9.182,3.43 18.667,2.598 26.612,-3.771 2.021,-1.574 4.229,-4.252 4.867,-4.289 -0.961,1.445 0.164,0.695 -0.574,1.971 2.014,-3.248 -0.875,-1.322 2.082,-5.609 l 1.092,1.504 c -0.406,-2.696 3.348,-5.97 2.967,-10.234 0.861,-1.304 0.961,1.403 0.047,4.403 1.268,-3.328 0.334,-3.863 0.66,-6.609 0.352,0.923 0.814,1.904 1.051,2.878 -0.826,-3.216 0.848,-5.416 1.262,-7.285 -0.408,-0.181 -1.275,1.422 -1.473,-2.377 0.029,-1.65 0.459,-0.865 0.625,-1.271 -0.324,-0.186 -1.174,-1.451 -1.691,-3.877 0.375,-0.57 1.002,1.478 1.512,1.562 -0.328,-1.929 -0.893,-3.4 -0.916,-4.88 -1.49,-3.114 -0.527,0.415 -1.736,-1.337 -1.586,-4.947 1.316,-1.148 1.512,-3.396 2.404,3.483 3.775,8.881 4.404,11.117 -0.48,-2.726 -1.256,-5.367 -2.203,-7.922 0.73,0.307 -1.176,-5.609 0.949,-1.691 C 83.519,18.706 76.074,10.902 69.225,7.24 70.063,8.007 71.121,8.97 70.741,9.121 67.335,7.093 67.934,6.935 67.446,6.078 64.671,4.949 64.489,6.169 62.651,6.08 57.421,3.306 56.413,3.601 51.6,1.863 l 0.219,1.023 c -3.465,-1.154 -4.037,0.438 -7.782,0.004 -0.228,-0.178 1.2,-0.644 2.375,-0.815 -3.35,0.442 -3.193,-0.66 -6.471,0.122 0.808,-0.567 1.662,-0.942 2.524,-1.424 -2.732,0.166 -6.522,1.59 -5.352,0.295 -4.456,1.988 -12.37,4.779 -16.811,8.943 l -0.14,-0.933 c -2.035,2.443 -8.874,7.296 -9.419,10.46 l -0.544,0.127 c -1.059,1.793 -1.744,3.825 -2.584,5.67 -1.385,2.36 -2.03,0.908 -1.833,1.278 -2.724,5.523 -4.077,10.164 -5.246,13.97 0.833,1.245 0.02,7.495 0.335,12.497 -1.368,24.704 17.338,48.69 37.785,54.228 2.997,1.072 7.454,1.031 11.245,1.141 -4.473,-1.279 -5.051,-0.678 -9.408,-2.197 -3.143,-1.48 -3.832,-3.17 -6.058,-5.102 l 0.881,1.557 c -4.366,-1.545 -2.539,-1.912 -6.091,-3.037 l 0.941,-1.229 C 28.751,98.334 26.418,96.056 25.78,94.795 l -1.548,0.061 c -1.86,-2.295 -2.851,-3.949 -2.779,-5.23 l -0.5,0.891 c -0.567,-0.973 -6.843,-8.607 -3.587,-6.83 -0.605,-0.553 -1.409,-0.9 -2.281,-2.484 l 0.663,-0.758 c -1.567,-2.016 -2.884,-4.6 -2.784,-5.461 0.836,1.129 1.416,1.34 1.99,1.533 -3.957,-9.818 -4.179,-0.541 -7.176,-9.994 L 8.412,66.472 C 7.926,65.74 7.631,64.945 7.24,64.165 l 0.276,-2.75 C 4.667,58.121 6.719,47.409 7.13,41.534 7.415,39.145 9.508,36.602 11.1,32.614 l -0.97,-0.167 c 1.854,-3.234 10.586,-12.988 14.63,-12.486 1.959,-2.461 -0.389,-0.009 -0.772,-0.629 4.303,-4.453 5.656,-3.146 8.56,-3.947 3.132,-1.859 -2.688,0.725 -1.203,-0.709 5.414,-1.383 3.837,-3.144 10.9,-3.846 0.745,0.424 -1.729,0.655 -2.35,1.205 4.511,-2.207 14.275,-1.705 20.617,1.225 7.359,3.439 15.627,13.605 15.953,23.17 l 0.371,0.1 c -0.188,3.802 0.582,8.199 -0.752,12.238 l 0.908,-1.912"
             i:knockout="Off"
             inkscape:connector-curvature="0"
             style="fill:#c8c8c9;fill-opacity:1" />
          <path
             id="path3930"
             d="m 32.372,59.764 -0.252,1.26 c 1.181,1.604 2.118,3.342 3.626,4.596 -1.085,-2.118 -1.891,-2.993 -3.374,-5.856"
             i:knockout="Off"
             inkscape:connector-curvature="0"
             style="fill:#c8c8c9;fill-opacity:1" />
          <path
             id="path3932"
             d="m 35.164,59.654 c -0.625,-0.691 -0.995,-1.523 -1.409,-2.352 0.396,1.457 1.207,2.709 1.962,3.982 l -0.553,-1.63"
             i:knockout="Off"
             inkscape:connector-curvature="0"
             style="fill:#c8c8c9;fill-opacity:1" />
          <path
             id="path3934"
             d="m 84.568,48.916 -0.264,0.662 c -0.484,3.438 -1.529,6.84 -3.131,9.994 1.77,-3.328 2.915,-6.968 3.395,-10.656"
             i:knockout="Off"
             inkscape:connector-curvature="0"
             style="fill:#c8c8c9;fill-opacity:1" />
          <path
             id="path3936"
             d="M 45.527,0.537 C 46.742,0.092 48.514,0.293 49.803,0 48.123,0.141 46.451,0.225 44.8,0.438 l 0.727,0.099"
             i:knockout="Off"
             inkscape:connector-curvature="0"
             style="fill:#c8c8c9;fill-opacity:1" />
          <path
             id="path3938"
             d="m 2.872,23.219 c 0.28,2.592 -1.95,3.598 0.494,1.889 1.31,-2.951 -0.512,-0.815 -0.494,-1.889"
             i:knockout="Off"
             inkscape:connector-curvature="0"
             style="fill:#c8c8c9;fill-opacity:1" />
          <path
             id="path3940"
             d="M 0,35.215 C 0.563,33.487 0.665,32.449 0.88,31.449 -0.676,33.438 0.164,33.862 0,35.215"
             i:knockout="Off"
             inkscape:connector-curvature="0"
             style="fill:#c8c8c9;fill-opacity:1" />
        </g>
      </g>
    </g>
  </g>
</svg>
